<?xml version="1.0" encoding="UTF-8" standalone="no"?>
<svg width="161px" height="222px" viewBox="0 0 161 222" version="1.1" xmlns="http://www.w3.org/2000/svg" xmlns:xlink="http://www.w3.org/1999/xlink">
    <!-- Generator: sketchtool 39.1 (31720) - http://www.bohemiancoding.com/sketch -->
    <title>A1BDF482-39D0-424D-B0C0-257D0515E954</title>
    <desc>Created with sketchtool.</desc>
    <defs></defs>
    <g id="Page-1" stroke="none" stroke-width="1" fill="none" fill-rule="evenodd">
        <g id="01_Empty_State" transform="translate(-570.000000, -379.000000)" fill="#7DCBC4">
            <path d="M705.297149,507.391616 C689.996675,512.707193 672.846231,516.826457 668.305174,516.826457 C660.555039,516.826457 654.252812,512.433397 654.252812,507.033955 C654.252812,501.632047 660.557505,497.234054 668.305174,497.234054 C669.93808,497.234054 672.811698,497.142789 676.44257,497.026858 C678.815463,496.952859 681.509018,496.86406 684.394969,496.787595 C685.413685,501.306452 686.910927,503.272352 689.256687,503.272352 L689.259154,503.272352 C691.368118,503.247686 692.63843,501.567914 693.590547,498.679496 C694.587064,501.858976 695.965907,503.272352 697.956473,503.272352 C700.526697,503.242753 701.848808,500.746528 702.87739,496.597665 C705.598078,496.634664 708.116502,496.70373 710.393197,496.809795 C719.29278,497.226654 722.881719,498.144239 724.280295,498.704163 C722.871852,499.939942 718.500993,502.808627 705.297149,507.391616 L705.297149,507.391616 Z M675.418921,474.632369 C675.418921,471.05083 678.336938,468.152546 681.940677,468.152546 C685.546883,468.152546 688.4649,471.05083 688.4649,474.632369 L688.4649,479.370756 C688.4649,482.954762 685.546883,485.85058 681.940677,485.85058 C678.339405,485.85058 675.418921,482.952295 675.418921,479.370756 L675.418921,474.632369 Z M631.947122,483.27049 C631.947122,486.849563 629.026638,489.750314 625.422899,489.750314 C621.82656,489.750314 618.908542,486.847096 618.908542,483.27049 L618.908542,478.52717 C618.908542,474.948097 621.82656,472.047346 625.422899,472.047346 C629.026638,472.047346 631.947122,474.948097 631.947122,478.52717 L631.947122,483.27049 Z M710.726191,491.370887 C711.061652,484.481603 709.986203,477.377723 707.25565,470.298509 C704.734759,463.737287 700.837491,457.291996 695.958507,451.335096 C680.02411,460.382677 654.178813,464.716537 642.205815,466.31491 C635.98252,467.143696 623.629662,468.539806 610.758813,468.539806 C601.997361,468.539806 594.669018,467.888617 588.583854,466.613372 C584.230261,482.954762 584.629855,500.81066 590.05643,514.885223 C592.779584,521.95457 596.738517,527.943535 601.600235,532.847186 C603.689466,532.220663 605.887229,531.867936 608.15899,531.867936 C610.097758,531.867936 612.041458,532.117065 613.923493,532.605457 C619.826127,534.137231 624.77911,537.851968 627.854991,543.078746 C628.69611,544.492122 629.349766,545.977031 629.852957,547.498938 C633.412297,547.891132 637.36383,548.125461 641.72729,548.125461 C646.524876,548.125461 650.78227,547.900998 654.583339,547.543338 C659.166329,546.717018 663.776451,545.45164 668.354507,543.712669 C684.661365,537.509107 697.35215,526.601691 704.46343,513.442247 C705.351415,513.143785 706.236933,512.84779 707.107652,512.541929 C730.33586,504.476065 730.33586,500.371601 730.33586,498.398301 C730.333393,494.010175 724.835286,492.041809 710.726191,491.370887 L710.726191,491.370887 Z M578.96895,456.330012 C582.012766,458.20218 586.001298,459.502092 590.500422,460.39501 C607.79393,463.826085 632.689576,461.048666 641.33263,459.891818 C650.229746,458.700439 676.134242,454.667507 691.582714,446.389513 C695.068055,444.522278 698.030472,442.43798 700.134503,440.126752 C704.897556,434.882708 704.201968,427.028974 698.580529,422.584115 C693.01829,418.18859 684.713164,418.775646 679.922978,423.869227 C679.449386,424.25402 678.6058,424.752279 677.42182,425.331936 L674.368139,381.882336 C673.49002,377.73594 652.484242,378.105933 627.460331,382.716056 C602.431487,387.326178 582.848951,394.427591 583.72707,398.578921 C583.776402,398.788584 583.877534,398.983447 584.023065,399.163511 C584.230261,399.577904 584.499123,400.251293 584.797585,401.075145 C585.515373,401.208343 586.25536,401.344008 587.007681,401.487072 C588.731852,401.844732 592.271459,402.589653 596.731117,403.011446 C601.190775,403.460372 606.553218,403.534371 611.73313,403.171777 C622.092955,402.523054 631.554929,400.078629 631.944655,401.186144 C632.361515,402.227059 623.447132,406.75085 612.561916,409.017678 C607.155074,410.176992 601.316573,410.744315 596.34879,410.694983 C592.846182,410.677717 589.812234,410.374322 587.614471,410.06106 C590.039163,418.358787 592.937448,429.229203 594.622152,435.805225 C594.146094,435.684361 593.731701,435.55363 593.443106,435.430298 C587.318476,431.794493 579.161347,433.407666 575.153081,439.093236 C571.10535,444.830606 572.809788,452.543743 578.96895,456.330012 L578.96895,456.330012 Z M705.556145,557.385171 C704.717492,558.778814 703.693843,560.076259 702.593728,561.329305 C698.96779,556.716716 694.133205,550.646352 690.033674,545.750101 C691.858976,543.794068 694.402067,542.65942 697.17702,542.65942 C698.933257,542.65942 700.667294,543.137945 702.186735,544.04813 C704.431364,545.377641 706.010004,547.498938 706.64886,550.017362 C707.282782,552.535787 706.893056,555.155342 705.556145,557.385171 L705.556145,557.385171 Z M644.951169,580.470315 C643.927519,573.849893 644.193915,566.852078 644.827838,561.023443 C654.652405,560.781714 663.095662,559.442337 669.903547,557.557835 C671.664718,563.208873 673.810681,570.297953 675.391788,576.21292 C665.461156,578.928674 654.689404,580.235985 644.951169,580.470315 L644.951169,580.470315 Z M612.746913,575.685062 L594.508688,569.802162 L597.628968,556.66245 L616.160722,562.634149 L612.746913,575.685062 Z M588.302659,567.725263 C587.64407,567.286204 586.995348,566.839745 586.373758,566.376019 C587.328342,564.521117 588.509856,562.81668 589.839367,561.240506 L588.302659,567.725263 Z M705.538879,538.483424 C702.916856,536.92205 700.023505,536.179596 697.174553,536.179596 C691.632047,536.179596 686.237538,538.979216 683.183856,544.04813 C681.373354,546.754018 667.651519,554.600352 641.724823,554.600352 C635.178401,554.600352 629.411431,554.09716 624.409116,553.305374 C624.184653,550.412022 623.183203,547.664202 621.555231,545.325842 C619.411734,542.254894 616.202655,539.894333 612.275788,538.878084 C610.899411,538.520423 609.520567,538.355159 608.154057,538.355159 C608.126924,538.355159 608.102258,538.357626 608.067725,538.357626 C604.535518,538.377359 601.156242,539.549006 598.403489,541.596305 C595.261008,538.12083 590.833416,536.204262 586.289893,536.204262 C583.440941,536.204262 580.550057,536.95165 577.925568,538.51549 C572.607524,541.68017 569.765972,547.383007 570.015102,553.137643 C570.1335,555.734999 570.883354,558.352088 572.323863,560.739781 C572.46446,560.969177 572.639591,561.173907 572.785121,561.400837 L572.780188,561.418103 C572.89612,561.5957 573.031784,561.758497 573.155115,561.931161 C576.181664,566.482084 580.318194,570.320153 585.261311,573.504566 C585.239111,573.667363 585.211978,573.83016 585.211978,573.997891 L585.211978,596.461444 L585.211978,597.758889 C585.211978,599.552126 586.67222,601.000034 588.47039,601.000034 C589.198044,601.000034 589.868966,600.753372 590.409157,600.351312 C591.205877,599.756855 591.731268,598.822005 591.731268,597.758889 C591.731268,599.552126 593.193977,601.000034 594.994613,601.000034 C596.792782,601.000034 598.255491,599.552126 598.255491,597.758889 C598.255491,599.552126 599.7108,601.000034 601.513903,601.000034 C603.312072,601.000034 604.769848,599.552126 604.769848,597.758889 C604.769848,599.552126 606.23009,601.000034 608.035659,601.000034 C609.833829,601.000034 611.296537,599.552126 611.296537,597.758889 L611.296537,593.333764 C613.987625,591.286465 616.039857,588.373381 617.036374,584.90284 C625.316834,586.350749 633.799557,587.009338 641.722357,587.009338 C667.057062,587.009338 698.005806,580.37165 710.282198,561.958294 C710.560927,561.536501 710.881588,561.149241 711.140584,560.717582 C712.578626,558.322489 713.330947,555.715266 713.441945,553.11051 C713.698474,547.353407 710.854455,541.645637 705.538879,538.483424 L705.538879,538.483424 Z" id="Empty_State"></path>
        </g>
    </g>
</svg>