<?xml version="1.0" encoding="UTF-8" standalone="no"?>
<svg width="18px" height="12px" viewBox="0 0 18 12" version="1.1" xmlns="http://www.w3.org/2000/svg" xmlns:xlink="http://www.w3.org/1999/xlink">
    <!-- Generator: sketchtool 39.1 (31720) - http://www.bohemiancoding.com/sketch -->
    <title>D4BFE2B5-9704-4E8F-860F-1CC3E2E43240</title>
    <desc>Created with sketchtool.</desc>
    <defs></defs>
    <g id="Page-1" stroke="none" stroke-width="1" fill="none" fill-rule="evenodd">
        <g id="07_Assets" transform="translate(-712.000000, -1494.000000)">
            <g id="Menu" transform="translate(709.000000, 1488.000000)">
                <polygon id="bounds" transform="translate(12.000000, 12.000000) scale(1, -1) translate(-12.000000, -12.000000) " points="24 0 0 0 0 24 24 24"></polygon>
                <path d="M3,6 L21,6 L21,8 L3,8 L3,6 L3,6 Z M3,11 L21,11 L21,13 L3,13 L3,11 L3,11 Z M3,18 L3,16 L21,16 L21,18 L3,18 L3,18 Z" id="Shape" fill="#FFFFFF" opacity="0.539999962" transform="translate(12.000000, 12.000000) scale(1, -1) translate(-12.000000, -12.000000) "></path>
            </g>
        </g>
    </g>
</svg>